<svg xmlns="http://www.w3.org/2000/svg" viewBox="0 0 724.43 137.17"><defs><style>.cls-1{fill:#ad2bb3;}.cls-2{fill:#45ab34;}.cls-3{fill:#e31f13;}</style></defs><g id="Layer_2" data-name="Layer 2"><g id="به_روز_مارت" data-name="به روز مارت"><g id="لوگو_به_روز_مارت" data-name="لوگو به روز مارت"><g id="به"><path id="o" class="cls-1" d="M492.9,59.86a14.09,14.09,0,0,0-14.09-14.08h-54a14.1,14.1,0,0,0-14.09,13.93l-.05,17.6a14.08,14.08,0,0,0,14.09,14.08h35.65a.87.87,0,0,0,.63-1.48,14.07,14.07,0,0,1-3.2-5.3,3.35,3.35,0,0,0-3.19-2.32H425.11A5.33,5.33,0,0,1,419.79,77l.07-16.68a5.3,5.3,0,0,1,5.4-5.4h53.22a5.32,5.32,0,0,1,5.33,5.33l0,9.52a3.83,3.83,0,0,0,.08.68,3.41,3.41,0,0,0,2.85,2.7,2.52,2.52,0,0,0,.47.06h2.28a2.84,2.84,0,0,0,.42,0,3.42,3.42,0,0,0,3-3.33Z"/><path id="o-2" data-name="o" class="cls-1" d="M533.64,45.83H498.13a.88.88,0,0,0-.63,1.49,14.19,14.19,0,0,1,3.15,5.2A3.51,3.51,0,0,0,504,54.94h29.35a5.33,5.33,0,0,1,5.33,5.33l-.07,16.63a5.3,5.3,0,0,1-5.39,5.4H480A5.33,5.33,0,0,1,474.68,77V67.43a2.66,2.66,0,0,0,0-.28A3.41,3.41,0,0,0,471.27,64H469a3.44,3.44,0,0,0-3.43,3.37v10a14.09,14.09,0,0,0,14.09,14.08h53.91a14.09,14.09,0,0,0,14.09-13.93l.05-17.55A14.09,14.09,0,0,0,533.64,45.83Z"/><path class="cls-1" d="M511.21,103.84a3.41,3.41,0,0,0-3.42-3.39H505.5a3.44,3.44,0,0,0-3.39,3.37v2.29a3.41,3.41,0,0,0,3.41,3.39h2.3a3.45,3.45,0,0,0,3.39-3.37Z"/></g><g id="روز"><g id="ز"><path id="r" class="cls-1" d="M236.06,91.36h14.25a14.26,14.26,0,0,0,14.26-14.1v-28a3.41,3.41,0,0,0-3.41-3.41h-2.3a3.45,3.45,0,0,0-3.39,3.37c0,29.23,0,18.68,0,27.81a5.22,5.22,0,0,1-5.22,5.22l-14.21,0a3.39,3.39,0,0,0-3.32,3.39h0v2.25h0A3.44,3.44,0,0,0,236.06,91.36Z"/><path class="cls-1" d="M264.43,31.79A3.41,3.41,0,0,0,261,28.4h-2.3a3.44,3.44,0,0,0-3.38,3.37s0,2.19,0,2.29a3.41,3.41,0,0,0,3.42,3.39h2.3a3.44,3.44,0,0,0,3.38-3.36Z"/></g><path id="e" class="cls-1" d="M277.17,82.28h64.2a5.35,5.35,0,0,0,5.54-5.39l-.05-13.08-.1-3.46A5.34,5.34,0,0,0,341.37,55h-54a4.55,4.55,0,0,0,.17,9.1h46.84a3.46,3.46,0,0,1,3.42,3.46v2.24a3.41,3.41,0,0,1-3.39,3.39h-47a13.77,13.77,0,0,1-13.69-13.71,13.6,13.6,0,0,1,13.61-13.6h54.61a14,14,0,0,1,14,13.94L356,77.1h0a14.29,14.29,0,0,1-14.28,14.27h-64.5A3.41,3.41,0,0,1,273.8,88V85.71A3.44,3.44,0,0,1,277.17,82.28Z"/><path id="ر" class="cls-1" d="M368.48,91.36h14.25A14.26,14.26,0,0,0,397,77.26v-28a3.41,3.41,0,0,0-3.41-3.41h-2.3a3.45,3.45,0,0,0-3.39,3.37s0,27.78,0,27.81a5.22,5.22,0,0,1-5.22,5.22l-14.21,0a3.39,3.39,0,0,0-3.32,3.39h0v2.25h0A3.44,3.44,0,0,0,368.48,91.36Z"/></g><g id="ت"><path class="cls-1" d="M82.12,49.28a2.62,2.62,0,0,0,0-.28,3.43,3.43,0,0,0-3.42-3.17H76.45A3.44,3.44,0,0,0,73,49.2l0,27.69a5.3,5.3,0,0,1-5.39,5.4H14.42A5.33,5.33,0,0,1,9.09,77l0-27.68c0-.1,0-.18,0-.28a3.43,3.43,0,0,0-3.42-3.17H3.44A3.44,3.44,0,0,0,0,49.2V77.31A14.1,14.1,0,0,0,14.09,91.39H68A14.09,14.09,0,0,0,82.1,77.46Z"/><path class="cls-1" d="M51.2,45.83H30.7a3.42,3.42,0,0,0-3.38,3.36s0,2.19,0,2.29a3.42,3.42,0,0,0,3.42,3.4H51.22a3.45,3.45,0,0,0,3.39-3.36v-2.3A3.42,3.42,0,0,0,51.2,45.83Z"/></g><path id="r-2" data-name="r" class="cls-1" d="M94.64,91.36h14.25a14.26,14.26,0,0,0,14.26-14.1v-28a3.41,3.41,0,0,0-3.41-3.41h-2.3a3.45,3.45,0,0,0-3.39,3.37c0,29.23,0,18.68,0,27.81a5.22,5.22,0,0,1-5.22,5.22l-14.21,0a3.39,3.39,0,0,0-3.32,3.39h0v2.25h0A3.44,3.44,0,0,0,94.64,91.36Z"/><path id="ما" class="cls-1" d="M200.34,45.83H182.89A14.1,14.1,0,0,0,168.8,59.91l0,8.7,0,8.7a13.94,13.94,0,0,0,.93,5h-23A5.33,5.33,0,0,1,141.38,77l0-45.11a2.81,2.81,0,0,0,0-.29A3.43,3.43,0,0,0,138,28.4h-2.24a3.44,3.44,0,0,0-3.44,3.37V77.31a14.1,14.1,0,0,0,14.1,14.08H200.3a14.09,14.09,0,0,0,14.09-13.93l0-7.29,0-10.26A14.1,14.1,0,0,0,200.34,45.83Zm4.94,31.06a5.3,5.3,0,0,1-5.39,5.4H183.17A5.33,5.33,0,0,1,177.89,77l0-6.79h0V67.06h0l0-6.8a5.33,5.33,0,0,1,5.33-5.33H200a5.33,5.33,0,0,1,5.32,5.33l0,9.91Z"/><path class="cls-2" d="M724.43,14.27A14.46,14.46,0,0,0,710,0H656.67a.63.63,0,0,0-.63.62V.71a.58.58,0,0,0,.27.42,11.79,11.79,0,0,1,5.59,7.48l.07.29a.62.62,0,0,0,.6.44h0l47-.06a5.46,5.46,0,0,1,5.52,5.56V62.25h0v.11a.62.62,0,0,0,.45.6l.28.08a11.55,11.55,0,0,1,7.4,5.58.62.62,0,0,0,.51.28.63.63,0,0,0,.64-.61V68C724.41,67.29,724.43,14.27,724.43,14.27Z"/><path class="cls-1" d="M724.42,82.73s0,0,0,0a14.28,14.28,0,0,0-.95-5.08A14.44,14.44,0,0,0,716,69.7l-.07,0a.78.78,0,0,0-.22,0,.62.62,0,0,0-.62.61V84.87h0c0,8.21,0,37.51,0,37.51a5.41,5.41,0,0,1-5.51,5.5l-66,0,0,0H622.88a.62.62,0,0,0-.59.62.45.45,0,0,0,0,.2l0,.07,0,0a14.37,14.37,0,0,0,12.72,8.38H710A14.39,14.39,0,0,0,724.42,123Z"/><path class="cls-3" d="M622,136a11.59,11.59,0,0,1-5.59-7.41l-.08-.28a.62.62,0,0,0-.6-.45h-13a5.41,5.41,0,0,1-5.52-5.5v-13a.61.61,0,0,0-.44-.6l-.29-.08a11.65,11.65,0,0,1-7.4-5.59.6.6,0,0,0-.44-.27h-.08a.63.63,0,0,0-.62.63v.69c0,.29,0,3.08,0,6.42v12.36a14.39,14.39,0,0,0,14.4,14.22h19.37a.63.63,0,0,0,.63-.62A.64.64,0,0,0,622,136Z"/><path class="cls-1" d="M655.31,8.49v0h0a15.13,15.13,0,0,0-1.48-2.52l-.05-.07a7.79,7.79,0,0,0-.51-.63l-.15-.19c-.15-.18-.31-.35-.47-.52l-.24-.25c-.15-.15-.67-.62-.78-.72a4.87,4.87,0,0,0-.42-.35c-.13-.11-.66-.5-.79-.59l-.51-.34-.33-.21-.88-.48c-.28-.14-.56-.28-.85-.4l-.06,0A14.24,14.24,0,0,0,642.43,0H603.86A17.1,17.1,0,0,0,590,7.56a12.59,12.59,0,0,0-2.1,6.85s0,62.83,0,73.15V89a14.39,14.39,0,0,0,8.32,13l.14.07a.58.58,0,0,0,.19,0,.63.63,0,0,0,.63-.62h0V81.19h0l0-66.41c0-3,4-5.48,7-5.48l34.07,0h16.47a.63.63,0,0,0,.6-.63A.59.59,0,0,0,655.31,8.49Z"/><path id="trolley" class="cls-1" d="M694.87,46.84a10.48,10.48,0,0,0-6.28-2H639.23a2.46,2.46,0,0,0-2.39,2.43v1.61a2.46,2.46,0,0,0,2.37,2.45h50.51a2.51,2.51,0,0,1,2.51,2.51,9.88,9.88,0,0,1-.68,2.23c-.56,1.58-10,22.61-10.76,24.26a3.78,3.78,0,0,1-3.48,2.28h-40A3.82,3.82,0,0,1,633.59,79c-.06-.59-2.59-30.65-2.64-31.35-.55-8.34-7.51-12.19-11.19-13.08l-2.57-.73a2.46,2.46,0,0,0-2.65,1,2.65,2.65,0,0,0-.32.68l-.44,1.55a2.63,2.63,0,0,0-.08.88,2.48,2.48,0,0,0,1.69,2.14l2.77.75c.61.16,6,1.65,6.32,7.23,0,.61,2.58,30.77,2.65,31.5a10.29,10.29,0,0,0,10,9.47h40.93a10.31,10.31,0,0,0,8.55-6l11-24.89C699.27,53.55,698.27,49.41,694.87,46.84Z"/><circle id="wheel" class="cls-1" cx="641.6" cy="98.11" r="5.28"/><circle id="wheel-2" data-name="wheel" class="cls-1" cx="674.19" cy="98.11" r="5.28"/></g></g></g></svg>